<svg 
 xmlns="http://www.w3.org/2000/svg"
 xmlns:xlink="http://www.w3.org/1999/xlink"
 width="26.5px" height="27.5px">
<path fill-rule="evenodd"  stroke="rgb(255, 255, 255)" stroke-width="3px" stroke-linecap="butt" stroke-linejoin="miter" fill="none"
 d="M23.500,13.499 C23.500,13.975 23.243,14.374 22.876,14.621 L13.437,24.096 C12.905,24.628 12.043,24.628 11.511,24.096 C10.979,23.562 10.979,22.698 11.511,22.165 L18.774,14.874 L2.875,14.874 C2.116,14.874 1.500,14.259 1.500,13.499 C1.500,12.740 2.116,12.124 2.875,12.124 L18.812,12.124 L11.511,4.795 C10.979,4.262 10.979,3.398 11.511,2.865 C12.043,2.331 12.905,2.331 13.437,2.865 L22.926,12.390 C22.974,12.427 23.031,12.445 23.076,12.490 C23.123,12.537 23.142,12.598 23.180,12.650 C23.370,12.886 23.500,13.173 23.500,13.499 Z"/>
</svg>